<?xml version="1.0" encoding="UTF-8" standalone="no"?>
<!-- Created with Inkscape (http://www.inkscape.org/) -->

<svg
   version="1.1"
   id="svg6615"
   xml:space="preserve"
   width="682.66669"
   height="682.66669"
   viewBox="0 0 682.66669 682.66669"
   xmlns="http://www.w3.org/2000/svg"
   xmlns:svg="http://www.w3.org/2000/svg"><defs
     id="defs6619"><clipPath
       clipPathUnits="userSpaceOnUse"
       id="clipPath6629"><path
         d="M 0,512 H 512 V 0 H 0 Z"
         id="path6627" /></clipPath></defs><g
     id="g6621"
     transform="matrix(1.3333333,0,0,-1.3333333,0,682.66667)"><g
       id="g6623"><g
         id="g6625"
         clip-path="url(#clipPath6629)"><g
           id="g6631"
           transform="translate(479.0446,278.9554)"><path
             d="m 0,0 c 0,123.184 -99.86,223.045 -223.045,223.045 -123.184,0 -223.044,-99.861 -223.044,-223.045 0,-123.184 99.86,-223.045 223.044,-223.045 C -99.86,-223.045 0,-123.184 0,0"
             style="fill:#ffce62;fill-opacity:1;fill-rule:nonzero;stroke:none"
             id="path6633" /></g><g
           id="g6635"
           transform="translate(369.726,470.8689)"><path
             d="m 0,0 c -33.3,19.776 -72.187,31.131 -113.726,31.131 -123.184,0 -223.045,-99.86 -223.045,-223.044 0,-90.892 54.367,-169.086 132.356,-203.836"
             style="fill:none;stroke:#000000;stroke-width:20;stroke-linecap:round;stroke-linejoin:round;stroke-miterlimit:10;stroke-dasharray:none;stroke-opacity:1"
             id="path6637" /></g><g
           id="g6639"
           transform="translate(346.2223,74.9119)"><path
             d="m 0,0 c 78.238,34.646 132.822,112.97 132.822,204.044 0,49.336 -16.018,94.932 -43.138,131.869"
             style="fill:none;stroke:#000000;stroke-width:20;stroke-linecap:round;stroke-linejoin:round;stroke-miterlimit:10;stroke-dasharray:none;stroke-opacity:1"
             id="path6641" /></g><g
           id="g6643"
           transform="translate(119.7391,373.0803)"><path
             d="m 0,0 h 83.983 c 16.305,0 29.523,-13.218 29.523,-29.524 v -50.175 c 0,-16.306 -13.218,-29.524 -29.523,-29.524 H 0 c -16.305,0 -29.524,13.218 -29.524,29.524 v 50.175 C -29.524,-13.218 -16.305,0 0,0"
             style="fill:#8dc9ff;fill-opacity:1;fill-rule:nonzero;stroke:none"
             id="path6645" /></g><g
           id="g6647"
           transform="translate(392.2609,373.0803)"><path
             d="m 0,0 h -83.983 c -16.305,0 -29.523,-13.218 -29.523,-29.524 v -50.175 c 0,-16.306 13.218,-29.524 29.523,-29.524 H 0 c 16.305,0 29.524,13.218 29.524,29.524 v 50.175 C 29.524,-13.218 16.305,0 0,0"
             style="fill:#8dc9ff;fill-opacity:1;fill-rule:nonzero;stroke:none"
             id="path6649" /></g><g
           id="g6651"
           transform="translate(392.2609,373.0803)"><path
             d="m 0,0 h -83.983 c -16.305,0 -29.523,-13.218 -29.523,-29.524 v -50.175 c 0,-16.306 13.218,-29.524 29.523,-29.524 H 0 c 16.305,0 29.524,13.218 29.524,29.524 v 50.175 C 29.524,-13.218 16.305,0 0,0 Z"
             style="fill:none;stroke:#000000;stroke-width:20;stroke-linecap:round;stroke-linejoin:round;stroke-miterlimit:10;stroke-dasharray:none;stroke-opacity:1"
             id="path6653" /></g><g
           id="g6655"
           transform="translate(119.7391,373.0803)"><path
             d="m 0,0 h 83.983 c 16.305,0 29.523,-13.218 29.523,-29.524 v -50.175 c 0,-16.306 -13.218,-29.524 -29.523,-29.524 H 0 c -16.305,0 -29.524,13.218 -29.524,29.524 v 50.175 C -29.524,-13.218 -16.305,0 0,0 Z"
             style="fill:none;stroke:#000000;stroke-width:20;stroke-linecap:round;stroke-linejoin:round;stroke-miterlimit:10;stroke-dasharray:none;stroke-opacity:1"
             id="path6657" /></g><g
           id="g6659"
           transform="translate(233.2453,333.0553)"><path
             d="m 0,0 v 8.752 c 0,12.567 10.188,22.755 22.755,22.755 v 0 c 12.567,0 22.754,-10.188 22.754,-22.755 V 0"
             style="fill:none;stroke:#000000;stroke-width:20;stroke-linecap:round;stroke-linejoin:round;stroke-miterlimit:10;stroke-dasharray:none;stroke-opacity:1"
             id="path6661" /></g><g
           id="g6663"
           transform="translate(421.7845,343.2225)"><path
             d="M 0,0 H 45.076"
             style="fill:none;stroke:#000000;stroke-width:20;stroke-linecap:round;stroke-linejoin:round;stroke-miterlimit:10;stroke-dasharray:none;stroke-opacity:1"
             id="path6665" /></g><g
           id="g6667"
           transform="translate(90.2156,343.2225)"><path
             d="M 0,0 H -45.076"
             style="fill:none;stroke:#000000;stroke-width:20;stroke-linecap:round;stroke-linejoin:round;stroke-miterlimit:10;stroke-dasharray:none;stroke-opacity:1"
             id="path6669" /></g><g
           id="g6671"
           transform="translate(256,186.6737)"><path
             d="m 0,0 v -30.738 c 0,-5.213 -4.226,-9.439 -9.439,-9.439 h -30.677 c -5.213,0 -9.439,4.226 -9.439,9.439 V 7.187 Z"
             style="fill:#ffffff;fill-opacity:1;fill-rule:nonzero;stroke:none"
             id="path6673" /></g><g
           id="g6675"
           transform="translate(256,186.6737)"><path
             d="m 0,0 v -30.738 c 0,-5.213 4.226,-9.439 9.439,-9.439 h 30.677 c 5.213,0 9.439,4.226 9.439,9.439 V 7.187 Z"
             style="fill:#ffffff;fill-opacity:1;fill-rule:nonzero;stroke:none"
             id="path6677" /></g><g
           id="g6679"
           transform="translate(256,186.6737)"><path
             d="m 0,0 v -30.738 c 0,-5.213 -4.226,-9.439 -9.439,-9.439 h -30.677 c -5.213,0 -9.439,4.226 -9.439,9.439 V 7.187"
             style="fill:none;stroke:#000000;stroke-width:20;stroke-linecap:round;stroke-linejoin:round;stroke-miterlimit:10;stroke-dasharray:none;stroke-opacity:1"
             id="path6681" /></g><g
           id="g6683"
           transform="translate(256,186.6737)"><path
             d="m 0,0 v -30.738 c 0,-5.213 4.226,-9.439 9.439,-9.439 h 30.677 c 5.213,0 9.439,4.226 9.439,9.439 V 7.187"
             style="fill:none;stroke:#000000;stroke-width:20;stroke-linecap:round;stroke-linejoin:round;stroke-miterlimit:10;stroke-dasharray:none;stroke-opacity:1"
             id="path6685" /></g><g
           id="g6687"
           transform="translate(198.7177,104.0605)"><path
             d="m 0,0 46.273,-26.551 c 14.679,-8.422 14.679,-29.597 0,-38.019 L 0,-91.121 c -14.611,-8.384 -32.824,2.164 -32.824,19.01 V -19.01 C -32.824,-2.164 -14.611,8.384 0,0"
             style="fill:#ff7c7a;fill-opacity:1;fill-rule:nonzero;stroke:none"
             id="path6689" /></g><g
           id="g6691"
           transform="translate(313.2823,104.0605)"><path
             d="m 0,0 -46.273,-26.551 c -14.679,-8.422 -14.679,-29.597 0,-38.019 L 0,-91.121 c 14.611,-8.384 32.824,2.164 32.824,19.01 V -19.01 C 32.824,-2.164 14.611,8.384 0,0"
             style="fill:#ff7c7a;fill-opacity:1;fill-rule:nonzero;stroke:none"
             id="path6693" /></g><g
           id="g6695"
           transform="translate(242.8047,38.2361)"><path
             d="m 0,0 -44.087,-25.297 c -14.611,-8.383 -32.824,2.165 -32.824,19.01 v 53.102 c 0,16.845 18.213,27.393 32.824,19.009 L 0.055,40.496"
             style="fill:none;stroke:#000000;stroke-width:20;stroke-linecap:round;stroke-linejoin:round;stroke-miterlimit:10;stroke-dasharray:none;stroke-opacity:1"
             id="path6697" /></g><g
           id="g6699"
           transform="translate(269.3634,38.1396)"><path
             d="m 0,0 43.919,-25.2 c 14.611,-8.384 32.824,2.164 32.824,19.009 v 53.102 c 0,16.846 -18.213,27.393 -32.824,19.01 L -0.058,40.688"
             style="fill:none;stroke:#000000;stroke-width:20;stroke-linecap:round;stroke-linejoin:round;stroke-miterlimit:10;stroke-dasharray:none;stroke-opacity:1"
             id="path6701" /></g><g
           id="g6703"
           transform="translate(280.322,58.5)"><path
             d="m 0,0 c 0,13.347 -10.82,24.167 -24.167,24.167 -13.347,0 -24.166,-10.82 -24.166,-24.167 0,-13.347 10.819,-24.167 24.166,-24.167 C -10.82,-24.167 0,-13.347 0,0"
             style="fill:#ff7c7a;fill-opacity:1;fill-rule:nonzero;stroke:none"
             id="path6705" /></g><g
           id="g6707"
           transform="translate(280.322,58.5)"><path
             d="m 0,0 c 0,13.347 -10.82,24.167 -24.167,24.167 -13.347,0 -24.166,-10.82 -24.166,-24.167 0,-13.347 10.819,-24.167 24.166,-24.167 C -10.82,-24.167 0,-13.347 0,0 Z"
             style="fill:none;stroke:#000000;stroke-width:20;stroke-linecap:round;stroke-linejoin:round;stroke-miterlimit:10;stroke-dasharray:none;stroke-opacity:1"
             id="path6709" /></g><g
           id="g6711"
           transform="translate(159.4376,214.7848)"><path
             d="M 0,0 C 58.846,-36.997 134.279,-36.997 193.125,0"
             style="fill:none;stroke:#000000;stroke-width:20;stroke-linecap:round;stroke-linejoin:round;stroke-miterlimit:10;stroke-dasharray:none;stroke-opacity:1"
             id="path6713" /></g><g
           id="g6715"
           transform="translate(405.7662,444.2413)"><path
             d="M 0,0 V 0"
             style="fill:none;stroke:#000000;stroke-width:20;stroke-linecap:round;stroke-linejoin:round;stroke-miterlimit:10;stroke-dasharray:none;stroke-opacity:1"
             id="path6717" /></g></g></g></g></svg>
